<svg width="27" height="24" viewBox="0 0 27 24" fill="none" xmlns="http://www.w3.org/2000/svg">
    <path fill-rule="evenodd" clip-rule="evenodd" d="M12.7468 0.0333856C14.586 -0.13019 16.4286 0.310422 17.9957 1.28701C19.5626 2.26354 20.7693 3.72331 21.4327 5.44633C22.096 7.1695 22.18 9.06246 21.6723 10.8377C21.1645 12.6129 20.0925 14.1742 18.6184 15.286C17.1444 16.3978 15.3487 16.9995 13.5024 17C12.205 17.0025 10.9239 16.7067 9.75938 16.1349C9.55919 16.0334 9.32982 16.0035 9.11056 16.0515L5.862 16.8026C5.77081 16.8237 5.6756 16.8211 5.5856 16.7954C5.49572 16.7696 5.41392 16.7215 5.34779 16.6554C5.2817 16.5893 5.23359 16.5074 5.2078 16.4176C5.18205 16.3276 5.17951 16.2324 5.20062 16.1412L5.94994 12.8918C6.00049 12.6731 5.96753 12.4452 5.86828 12.243C5.05527 10.5853 4.80428 8.70782 5.15306 6.89469C5.50189 5.08149 6.43204 3.43118 7.80216 2.19336C9.1722 0.955667 10.9077 0.197011 12.7468 0.0333856ZM9.79886 9.75371C9.41844 9.75371 9.11001 10.0626 9.10967 10.4429C9.10967 10.8235 9.41823 11.1321 9.79886 11.1321H15.0809L15.1509 11.1294C15.4986 11.0942 15.7701 10.7998 15.7701 10.4429C15.7698 10.0862 15.4984 9.79243 15.1509 9.7573L15.0809 9.75371H9.79886ZM9.79886 5.86899C9.4183 5.86899 9.10978 6.17765 9.10967 6.55817C9.10967 6.9388 9.41823 7.24735 9.79886 7.24735H17.2051L17.2759 7.24376C17.6234 7.20836 17.8942 6.91493 17.8942 6.55817C17.8941 6.2015 17.6233 5.90796 17.2759 5.87258L17.2051 5.86899H9.79886Z" fill="#D7AFB9"/>
</svg>
