<svg width="16" height="15" viewBox="0 0 16 15" fill="none" xmlns="http://www.w3.org/2000/svg">
    <path d="M11.0394 2.84132L12.6583 4.46024M12.0802 1.41511L7.70062 5.79469C7.47365 6.02016 7.31921 6.30828 7.25708 6.62212L6.85254 8.64711L8.87753 8.2418C9.19106 8.1791 9.4786 8.02539 9.70496 7.79903L14.0845 3.41945C14.2161 3.28785 14.3205 3.13161 14.3918 2.95965C14.463 2.7877 14.4996 2.6034 14.4996 2.41728C14.4996 2.23116 14.463 2.04687 14.3918 1.87491C14.3205 1.70296 14.2161 1.54672 14.0845 1.41511C13.9529 1.28351 13.7967 1.17911 13.6247 1.10788C13.4528 1.03666 13.2685 1 13.0824 1C12.8962 1 12.7119 1.03666 12.54 1.10788C12.368 1.17911 12.2118 1.28351 12.0802 1.41511Z" stroke="#C2C3CB" stroke-width="1.3" stroke-linecap="round" stroke-linejoin="round"/>
    <path d="M12.9709 10.1765V12.4707C12.9709 12.8763 12.8097 13.2654 12.5229 13.5522C12.2361 13.839 11.847 14.0002 11.4414 14.0002H3.02945C2.62381 14.0002 2.23479 13.839 1.94796 13.5522C1.66114 13.2654 1.5 12.8763 1.5 12.4707V4.05874C1.5 3.65311 1.66114 3.26409 1.94796 2.97726C2.23479 2.69043 2.62381 2.5293 3.02945 2.5293H5.32362" stroke="#C2C3CB" stroke-width="1.3" stroke-linecap="round" stroke-linejoin="round"/>
</svg>
