<svg width="24" height="24" viewBox="0 0 24 24" fill="none" xmlns="http://www.w3.org/2000/svg">
    <rect width="24" height="24" rx="12" fill="#1D1D1F"/>
    <path d="M15.5394 6.84132L17.1583 8.46024M16.5802 5.41511L12.2006 9.79469C11.9737 10.0202 11.8192 10.3083 11.7571 10.6221L11.3525 12.6471L13.3775 12.2418C13.6911 12.1791 13.9786 12.0254 14.205 11.799L18.5845 7.41945C18.7161 7.28785 18.8205 7.13161 18.8918 6.95965C18.963 6.7877 18.9996 6.6034 18.9996 6.41728C18.9996 6.23116 18.963 6.04687 18.8918 5.87491C18.8205 5.70296 18.7161 5.54672 18.5845 5.41511C18.4529 5.28351 18.2967 5.17911 18.1247 5.10788C17.9528 5.03666 17.7685 5 17.5824 5C17.3962 5 17.2119 5.03666 17.04 5.10788C16.868 5.17911 16.7118 5.28351 16.5802 5.41511Z" stroke="#FEFEFE" stroke-width="1.5" stroke-linecap="round" stroke-linejoin="round"/>
    <path d="M17.4709 14.1765V16.4707C17.4709 16.8763 17.3097 17.2654 17.0229 17.5522C16.7361 17.839 16.347 18.0002 15.9414 18.0002H7.52945C7.12381 18.0002 6.73479 17.839 6.44796 17.5522C6.16114 17.2654 6 16.8763 6 16.4707V8.05874C6 7.65311 6.16114 7.26409 6.44796 6.97726C6.73479 6.69043 7.12381 6.5293 7.52945 6.5293H9.82362" stroke="#FEFEFE" stroke-width="1.5" stroke-linecap="round" stroke-linejoin="round"/>
</svg>
