<svg width="20" height="19" viewBox="0 0 20 19" fill="none" xmlns="http://www.w3.org/2000/svg">
    <path fill-rule="evenodd" clip-rule="evenodd" d="M16.9539 11.4449L16.9577 18.0292C16.9577 18.2882 16.7464 18.4995 16.4875 18.4995H12.2341C11.9752 18.4995 11.7639 18.2882 11.7639 18.0292V14.4492C11.7639 14.1903 11.5528 13.979 11.2938 13.979H8.70686C8.44791 13.979 8.23664 14.1903 8.23664 14.4492V18.0292C8.23664 18.2882 8.02549 18.4995 7.76653 18.4995H3.51318C3.25422 18.4995 3.04296 18.2882 3.04296 18.0292V11.4449L6.51102 7.91765L9.64421 4.73147C9.73602 4.63817 9.84868 4.59082 9.97965 4.59082C10.1104 4.59082 10.2231 4.63817 10.3149 4.73147L13.4481 7.91765L16.9539 11.4449Z" fill="#FDFDFE"/>
    <path fill-rule="evenodd" clip-rule="evenodd" d="M10.6726 0.781191L15.5281 5.71903L19.4809 9.73899C19.7522 10.015 19.8272 10.4049 19.6775 10.7619C19.5278 11.1189 19.1973 11.3388 18.8101 11.3388H18.7866C18.5248 11.3388 18.2995 11.2445 18.116 11.0576L14.1822 7.05701L10.6426 3.45717C10.459 3.27056 10.2337 3.17598 9.97191 3.17598C9.71007 3.17598 9.48486 3.27056 9.30124 3.45717L5.7613 7.05701C4.45027 8.39051 3.13877 9.72424 1.82774 11.0576L1.78949 11.092C1.6258 11.2363 1.41096 11.3238 1.17562 11.3238C0.66277 11.3238 0.246685 10.9079 0.246685 10.3948C0.246685 10.1115 0.37363 9.85787 0.573839 9.68738L4.47584 5.71903L9.33131 0.781191C9.51493 0.59446 9.74014 0.5 10.0021 0.5C10.2638 0.5 10.4891 0.594575 10.6726 0.781191Z" fill="#FDFDFE"/>
</svg>
