<svg width="9" height="13" viewBox="0 0 9 13" fill="none" xmlns="http://www.w3.org/2000/svg">
    <path d="M4.44047 5.96498C4.05594 5.96498 3.68717 5.80105 3.41526 5.50925C3.14336 5.21745 2.99061 4.82169 2.99061 4.40903C2.99061 3.99637 3.14336 3.6006 3.41526 3.30881C3.68717 3.01701 4.05594 2.85308 4.44047 2.85308C4.825 2.85308 5.19378 3.01701 5.46568 3.30881C5.73758 3.6006 5.89033 3.99637 5.89033 4.40903C5.89033 4.61336 5.85283 4.81569 5.77997 5.00447C5.70711 5.19324 5.60031 5.36477 5.46568 5.50925C5.33105 5.65374 5.17122 5.76835 4.99531 5.84654C4.8194 5.92473 4.63087 5.96498 4.44047 5.96498ZM4.44047 0.0523682C3.3638 0.0523682 2.33122 0.511372 1.56989 1.3284C0.808567 2.14544 0.380859 3.25357 0.380859 4.40903C0.380859 7.67652 4.44047 12.5 4.44047 12.5C4.44047 12.5 8.50008 7.67652 8.50008 4.40903C8.50008 3.25357 8.07238 2.14544 7.31105 1.3284C6.54973 0.511372 5.51715 0.0523682 4.44047 0.0523682Z" fill="#CED1D8"/>
</svg>
