<svg width="21" height="20" viewBox="0 0 21 20" fill="none" xmlns="http://www.w3.org/2000/svg">
    <path d="M10.25 11.875C11.2855 11.875 12.125 11.0355 12.125 10C12.125 8.96447 11.2855 8.125 10.25 8.125C9.21447 8.125 8.375 8.96447 8.375 10C8.375 11.0355 9.21447 11.875 10.25 11.875Z" fill="#D7AFB9"/>
    <path d="M18.6246 11.7188L18.6063 11.7039L17.3734 10.7371C17.2954 10.6753 17.2331 10.5959 17.1916 10.5054C17.1502 10.4149 17.1309 10.3159 17.1352 10.2164V9.76484C17.1312 9.66602 17.1508 9.56768 17.1923 9.47791C17.2338 9.38814 17.296 9.30949 17.3738 9.24844L18.6063 8.28125L18.6246 8.26641C18.8147 8.10807 18.9422 7.88729 18.9845 7.64354C19.0267 7.3998 18.9808 7.14898 18.8551 6.93594L17.1867 4.04922C17.1848 4.04649 17.1831 4.04362 17.1816 4.04063C17.0552 3.83053 16.8592 3.67135 16.6277 3.59071C16.3961 3.51008 16.1436 3.51309 15.9141 3.59922L15.9004 3.6043L14.4512 4.1875C14.3597 4.22448 14.2608 4.2392 14.1625 4.23044C14.0642 4.22168 13.9694 4.18969 13.8859 4.13711C13.7578 4.05638 13.6276 3.98008 13.4953 3.9082C13.4095 3.86169 13.3359 3.79567 13.2803 3.71547C13.2248 3.63527 13.1888 3.54313 13.1754 3.44648L12.957 1.9L12.9523 1.87187C12.9048 1.63234 12.7763 1.41647 12.5883 1.26054C12.4004 1.10462 12.1645 1.01813 11.9203 1.01562H8.57969C8.33206 1.01642 8.09265 1.10458 7.90364 1.26457C7.71464 1.42457 7.58816 1.64613 7.54649 1.89023L7.54297 1.91211L7.32539 3.46172C7.31205 3.55809 7.27639 3.65001 7.22125 3.73017C7.16612 3.81032 7.09303 3.8765 7.00782 3.92344C6.87514 3.99489 6.74486 4.07072 6.61719 4.15078C6.53386 4.20304 6.43931 4.23479 6.34132 4.24341C6.24334 4.25203 6.1447 4.23729 6.05352 4.20039L4.60313 3.61445L4.58946 3.60898C4.35956 3.52276 4.10671 3.51987 3.8749 3.6008C3.64308 3.68173 3.44698 3.84138 3.32071 4.05195L3.31563 4.06055L1.64493 6.94922C1.519 7.16248 1.47304 7.41357 1.51526 7.65761C1.55748 7.90164 1.68514 8.1227 1.87539 8.28125L1.89375 8.29609L3.12657 9.26289C3.20464 9.32465 3.26694 9.40405 3.30836 9.49457C3.34979 9.58509 3.36914 9.68414 3.36485 9.78359V10.2352C3.36876 10.334 3.34916 10.4323 3.30767 10.5221C3.26618 10.6119 3.20398 10.6905 3.12618 10.7516L1.89375 11.7188L1.87539 11.7336C1.68533 11.8919 1.55778 12.1127 1.51555 12.3565C1.47333 12.6002 1.51919 12.851 1.64493 13.0641L3.31328 15.9508C3.3152 15.9535 3.3169 15.9564 3.31836 15.9594C3.44478 16.1695 3.64078 16.3287 3.87234 16.4093C4.10389 16.4899 4.35637 16.4869 4.58594 16.4008L4.59961 16.3957L6.04766 15.8125C6.13913 15.7755 6.23808 15.7608 6.33635 15.7696C6.43462 15.7783 6.52941 15.8103 6.61289 15.8629C6.74102 15.9439 6.87123 16.0202 7.00352 16.0918C7.08929 16.1383 7.16293 16.2043 7.2185 16.2845C7.27408 16.3647 7.31002 16.4569 7.32344 16.5535L7.54063 18.1L7.54532 18.1281C7.59293 18.368 7.72182 18.5842 7.91024 18.7402C8.09866 18.8962 8.3351 18.9824 8.57969 18.9844H11.9203C12.1679 18.9836 12.4074 18.8954 12.5964 18.7354C12.7854 18.5754 12.9118 18.3539 12.9535 18.1098L12.957 18.0879L13.1746 16.5383C13.1882 16.4417 13.2241 16.3497 13.2796 16.2695C13.3351 16.1893 13.4086 16.1233 13.4941 16.0766C13.6277 16.0047 13.7582 15.9285 13.8848 15.8492C13.9681 15.797 14.0626 15.7652 14.1606 15.7566C14.2586 15.748 14.3573 15.7627 14.4484 15.7996L15.8988 16.3836L15.9125 16.3891C16.1424 16.4754 16.3953 16.4784 16.6271 16.3975C16.859 16.3165 17.0551 16.1568 17.1813 15.9461C17.1828 15.9432 17.1845 15.9403 17.1863 15.9375L18.8547 13.0512C18.9808 12.8379 19.027 12.5868 18.9848 12.3426C18.9427 12.0985 18.815 11.8773 18.6246 11.7188ZM13.3715 10.1469C13.343 10.7518 13.1394 11.3354 12.7855 11.8268C12.4315 12.3181 11.9424 12.696 11.3776 12.9145C10.8128 13.1331 10.1967 13.1828 9.60418 13.0576C9.01167 12.9325 8.46828 12.6379 8.0401 12.2097C7.61191 11.7814 7.31738 11.238 7.19231 10.6455C7.06724 10.0529 7.11703 9.43685 7.33562 8.87209C7.55421 8.30734 7.93218 7.81826 8.42357 7.46434C8.91496 7.11041 9.4986 6.90689 10.1035 6.87852C10.5378 6.8594 10.9713 6.93085 11.3765 7.08834C11.7816 7.24583 12.1496 7.48591 12.457 7.79331C12.7643 8.10071 13.0044 8.4687 13.1618 8.87389C13.3193 9.27908 13.3907 9.7126 13.3715 10.1469Z" fill="#D7AFB9"/>
</svg>
